<?xml version="1.0" encoding="iso-8859-1"?>
<!-- Generator: Adobe Illustrator 16.0.0, SVG Export Plug-In . SVG Version: 6.00 Build 0)  -->
<!DOCTYPE svg PUBLIC "-//W3C//DTD SVG 1.1//EN" "http://www.w3.org/Graphics/SVG/1.1/DTD/svg11.dtd">
<svg version="1.1" id="Capa_1" xmlns="http://www.w3.org/2000/svg" xmlns:xlink="http://www.w3.org/1999/xlink" x="0px" y="0px"
	 width="365.885px" height="365.884px" viewBox="0 0 365.885 365.884" style="enable-background:new 0 0 365.885 365.884;"
	 xml:space="preserve">
<g>
	<path d="M333.098,206.818c-10.172-5.356-53.298-38.05-53.298-57.923V99.263c0-45.225-36.785-82.029-82.014-82.029h-29.673
		c-45.225,0-82.028,36.795-82.028,82.029v49.632c0,19.873-43.114,52.566-52.911,57.755C13.024,215.525,0,235.478,0,257.468
		c0,30.618,24.923,55.538,55.544,55.538H136.6c5.44,20.5,24.164,35.645,46.342,35.645c22.193,0,40.904-15.145,46.356-35.645h81.041
		c30.625,0,55.545-24.92,55.545-55.538C365.885,235.478,352.866,215.525,333.098,206.818z M233.755,116.725
		c-6.785,0-12.298-5.509-12.298-12.298c0-16.105-13.103-29.208-29.207-29.208c-6.786,0-12.295-5.509-12.295-12.298
		c0-6.794,5.509-12.298,12.295-12.298c29.676,0,53.803,24.127,53.803,53.803C246.053,111.215,240.553,116.725,233.755,116.725z"/>
</g>
<g>
</g>
<g>
</g>
<g>
</g>
<g>
</g>
<g>
</g>
<g>
</g>
<g>
</g>
<g>
</g>
<g>
</g>
<g>
</g>
<g>
</g>
<g>
</g>
<g>
</g>
<g>
</g>
<g>
</g>
</svg>
